# xmcd
#
# Track frame offsets:
# 150
# 14345
# 28010
# 46925
# 61665
# 78870
# 91690
# 103560
# 120490
# 137940
# 152800
# 165430
# 179065
# 194125
#
# Disc length: 2792 seconds
#
#
# Revision: 0
# Processed by: cddbd v1.5.1PL0 Copyright (c) Steve Scherf et al.
# Submitted via: FreeRIP 2.941 
#
DISCID=af0ae60e
DTITLE=Lelli`s and Lenno`n - Lelli`s and Lenno`n  Vol 3
DYEAR=1900
DGENRE=Sertaneja
TTITLE0=01-Abre o Jogo
TTITLE1=02-Ave Sem Minho(Paloma Sem Nido)
TTITLE2=03-Bate,Bate Coração
TTITLE3=04-Ave Mensageira (Paloma Blanca)
TTITLE4=05-Sua Volta
TTITLE5=06-Mala Pronta
TTITLE6=07-Antes Que o Mal Cresça
TTITLE7=08-Ave Rebelde
TTITLE8=09-Perdas e Danos
TTITLE9=10-Pensando Nela
TTITLE10=11-Gente da Minha Terra
TTITLE11=12-Se Você Quiser Carinho
TTITLE12=13-Rio e Canoa
TTITLE13=14-Pai Tião
EXTD=
EXTT0=
EXTT1=
EXTT2=
EXTT3=
EXTT4=
EXTT5=
EXTT6=
EXTT7=
EXTT8=
EXTT9=
EXTT10=
EXTT11=
EXTT12=
EXTT13=
PLAYORDER=
